<svg width="132" height="56" viewBox="0 0 132 56" fill="none" xmlns="http://www.w3.org/2000/svg">
<path d="M5.60563 45V19.56H9.54163V24.36C10.0856 22.792 11.0136 21.528 12.3256 20.568C13.6696 19.576 15.1896 19.08 16.8856 19.08C19.0936 19.08 20.7896 19.56 21.9736 20.52C23.1576 21.448 23.9736 22.648 24.4216 24.12C25.2536 22.552 26.3096 21.32 27.5896 20.424C28.9016 19.528 30.4696 19.08 32.2936 19.08C34.9176 19.08 36.9656 19.88 38.4376 21.48C39.9096 23.048 40.6456 25.528 40.6456 28.92V45H36.4216V29.88C36.4216 27.352 35.9736 25.56 35.0776 24.504C34.2136 23.448 32.8856 22.92 31.0936 22.92C30.0696 22.92 29.1096 23.208 28.2136 23.784C27.3176 24.328 26.5976 25.128 26.0536 26.184C25.5096 27.208 25.2376 28.44 25.2376 29.88V45H21.0136V29.88C21.0136 27.352 20.5656 25.56 19.6696 24.504C18.7736 23.448 17.4456 22.92 15.6856 22.92C14.6616 22.92 13.7016 23.208 12.8056 23.784C11.9096 24.328 11.1896 25.128 10.6456 26.184C10.1016 27.208 9.82963 28.44 9.82963 29.88V45H5.60563Z" fill="white"/>
<g clip-path="url(#clip0_431_1076)">
<path d="M69.3834 31.5146C69.3834 38.1421 64.0108 43.5146 57.3834 43.5146C50.756 43.5146 45.3834 38.1421 45.3834 31.5146C45.3834 24.8872 50.756 19.5146 57.3834 19.5146C64.0108 19.5146 69.3834 24.8872 69.3834 31.5146Z" fill="white"/>
</g>
<path d="M69.5 33C69.5 35.6389 64.1607 34.0632 63.8406 34.7261C63.339 35.7648 69.3648 34.6768 68.5524 35.8769C68.017 36.6679 62.1546 35.7269 61.4846 36.4523C60.7493 37.2483 68.2713 36.447 67.3745 37.0277C67.1316 37.185 65.9661 38.1784 63.8406 37.8846C63.3036 39.0354 66.4258 38.3372 65.9661 38.7538C65.9661 39.9046 60.5913 39.0023 60.227 39.3292C59.638 40.4799 65.1206 40.1882 64.7881 40.4799C64.1991 41.0553 61.0443 40.1636 60.6652 40.4799C59.4873 42.2061 64.7881 41.0553 63.6102 42.2061C58.3093 43.3569 59.9587 43.5666 62.4322 43.9322C66.3247 44.5076 54.1864 45.6584 53.5974 44.5076C53.2389 44.1993 57.2175 43.2415 56.7728 43.0361C56.4074 42.8673 51.4993 43.6933 51.2415 42.7815C51.8305 41.6307 57.1313 42.7815 56.7728 41.6307C55.9534 41.0553 53.635 41.6164 53.2389 41.4062C52.6499 40.293 58.3093 40.4799 57.7203 39.9046C57.1313 39.3292 49.7049 40.4799 49.116 39.9046C48.527 38.7538 56.0434 38.4272 55.5948 38.1784C54.6556 37.6576 47.7372 38.3889 47.349 38.1784C46.2707 37.5938 49.586 37.815 48.527 37.0277C47.4231 36.207 54.1169 36.7273 53.2389 35.8769C52.2421 34.9116 46.3589 36.0377 45.9406 35.3015C45.3375 34.2401 50.4202 34.3014 50.8829 34.1508C51.4719 33.5754 43.5847 33.5754 45.9406 33C45.9406 33 51.2146 33 57.7203 33C64.226 33 69.5 33 69.5 33Z" fill="#A3E6FF"/>
<path d="M85.0094 45.48C82.8654 45.48 80.8494 45.016 78.9614 44.088C77.1054 43.128 75.6014 41.688 74.4494 39.768C73.3294 37.848 72.7694 35.432 72.7694 32.52V31.56C72.7694 28.808 73.3294 26.504 74.4494 24.648C75.6014 22.792 77.1054 21.4 78.9614 20.472C80.8494 19.544 82.8654 19.08 85.0094 19.08C87.1854 19.08 89.2014 19.544 91.0574 20.472C92.9134 21.4 94.4014 22.792 95.5214 24.648C96.6734 26.504 97.2494 28.808 97.2494 31.56V32.52C97.2494 35.432 96.6734 37.848 95.5214 39.768C94.4014 41.688 92.9134 43.128 91.0574 44.088C89.2014 45.016 87.1854 45.48 85.0094 45.48ZM85.0094 41.64C86.3214 41.64 87.5694 41.352 88.7534 40.776C89.9694 40.168 90.9614 39.192 91.7294 37.848C92.5294 36.504 92.9294 34.728 92.9294 32.52V31.56C92.9294 29.512 92.5294 27.864 91.7294 26.616C90.9614 25.336 89.9694 24.408 88.7534 23.832C87.5694 23.224 86.3214 22.92 85.0094 22.92C83.7294 22.92 82.4814 23.224 81.2654 23.832C80.0494 24.408 79.0414 25.336 78.2414 26.616C77.4734 27.864 77.0894 29.512 77.0894 31.56V32.52C77.0894 34.728 77.4734 36.504 78.2414 37.848C79.0414 39.192 80.0494 40.168 81.2654 40.776C82.4814 41.352 83.7294 41.64 85.0094 41.64Z" fill="white"/>
<path d="M104.574 45V19.56H108.51V24.36C109.086 22.952 110.094 21.72 111.534 20.664C113.006 19.608 114.894 19.08 117.198 19.08C120.398 19.08 122.766 19.944 124.302 21.672C125.87 23.368 126.654 25.864 126.654 29.16V45H122.43V30.12C122.43 27.752 121.934 25.96 120.942 24.744C119.95 23.528 118.286 22.92 115.95 22.92C114.286 22.92 112.926 23.272 111.87 23.976C110.814 24.68 110.03 25.576 109.518 26.664C109.038 27.752 108.798 28.904 108.798 30.12V45H104.574Z" fill="white"/>
<defs>
<clipPath id="clip0_431_1076">
<rect width="24" height="21" fill="white" transform="translate(45.5 11)"/>
</clipPath>
</defs>
</svg>
